<?xml version="1.0" standalone="no"?>
<!DOCTYPE svg PUBLIC "-//W3C//DTD SVG 1.1//EN" "http://www.w3.org/Graphics/SVG/1.1/DTD/svg11.dtd" >
<svg xmlns="http://www.w3.org/2000/svg">
<metadata>Generated by IcoMoon</metadata>
<defs>
<font id="crowny" horiz-adv-x="1024">
<font-face units-per-em="1024" ascent="960" descent="-64" />
<missing-glyph horiz-adv-x="1024" />
<glyph unicode="&#x20;" horiz-adv-x="512" d="" />
<glyph unicode="&#xe900;" glyph-name="ArrowDown" d="M755.23 311.654c16.811-16.512 17.054-43.529 0.542-60.339l-213.333-217.212c-8.021-8.171-18.991-12.77-30.438-12.77s-22.417 4.599-30.438 12.77l-213.335 217.212c-16.512 16.811-16.268 43.827 0.544 60.339 16.812 16.508 43.826 16.265 60.337-0.546l140.226-142.775v663.667c0 23.564 19.102 42.667 42.667 42.667s42.667-19.103 42.667-42.667v-663.667l140.228 142.775c16.508 16.811 43.524 17.054 60.335 0.546z" />
<glyph unicode="&#xe901;" glyph-name="ArrowUp" d="M755.23 584.347c16.811 16.512 17.054 43.526 0.542 60.337l-213.333 217.212c-8.021 8.168-18.991 12.77-30.438 12.77s-22.417-4.602-30.438-12.77l-213.335-217.212c-16.512-16.812-16.268-43.826 0.544-60.337s43.826-16.268 60.337 0.544l140.226 142.776v-663.667c0-23.565 19.102-42.667 42.667-42.667s42.667 19.102 42.667 42.667v663.667l140.228-142.776c16.508-16.812 43.524-17.055 60.335-0.544z" />
<glyph unicode="&#xe902;" glyph-name="Bell" d="M512 960c-56.554 0-102.4-45.846-102.4-102.4v-17.48c-119.316-42.172-204.8-155.963-204.8-289.72v-184.3l-82.814-113.874c-22.654-31.145-25.913-72.371-8.436-106.696 17.478-34.319 52.735-55.931 91.25-55.931h153.6c0-84.833 68.769-153.6 153.6-153.6 84.833 0 153.6 68.767 153.6 153.6h153.6c38.513 0 73.774 21.612 91.249 55.931 17.48 34.324 14.218 75.551-8.433 106.696l-82.816 113.874v184.3c0 133.757-85.484 247.548-204.8 289.72v17.48c0 56.554-45.844 102.4-102.4 102.4zM563.261 192h-358.461l82.814 113.869c12.729 17.505 19.586 38.589 19.586 60.232v184.3c0 113.108 91.692 204.8 204.8 204.8 113.106 0 204.8-91.692 204.8-204.8v-184.3c0-21.642 6.856-42.726 19.584-60.232l82.816-113.869h-255.939zM512 38.4c-28.277 0-51.2 22.922-51.2 51.2h102.4c0-28.278-22.923-51.2-51.2-51.2zM771.661 876.615c10.501 26.254 40.3 39.025 66.555 28.523l-19.016-47.538c19.016 47.538 19.046 47.525 19.082 47.512l0.067-0.028 0.143-0.058 0.312-0.129 0.748-0.313c0.548-0.233 1.198-0.517 1.935-0.852 1.485-0.672 3.343-1.558 5.53-2.681 4.362-2.243 10.040-5.449 16.584-9.81 13.082-8.72 29.737-22.15 46.131-41.824 33.469-40.162 63.068-103.037 63.068-196.617 0-28.277-22.922-51.2-51.2-51.2s-51.2 22.923-51.2 51.2c0 70.26-21.601 109.785-39.332 131.063-9.206 11.046-18.15 18.097-24.269 22.176-3.057 2.038-5.376 3.313-6.615 3.95-0.425 0.218-0.717 0.359-0.865 0.429-25.667 10.805-38.042 40.233-27.658 66.198zM185.785 905.138c26.254 10.502 56.051-2.269 66.553-28.523 10.385-25.965-1.989-55.393-27.658-66.198-0.147-0.070-0.44-0.21-0.864-0.429-1.239-0.637-3.558-1.911-6.616-3.95-6.119-4.080-15.062-11.13-24.268-22.176-17.732-21.278-39.333-60.803-39.333-131.063 0-28.277-22.923-51.2-51.2-51.2s-51.2 22.923-51.2 51.2c0 93.58 29.598 156.455 63.067 196.617 16.394 19.674 33.052 33.103 46.132 41.824 6.543 4.362 12.223 7.567 16.584 9.81 2.183 1.123 4.044 2.009 5.527 2.681 0.742 0.336 1.39 0.62 1.937 0.852l0.746 0.313 0.315 0.129 0.143 0.058 0.068 0.028c0.033 0.013 0.066 0.026 19.081-47.512l-19.015 47.538z" />
<glyph unicode="&#xe903;" glyph-name="Calendar" d="M341.333 874.667c-23.564 0-42.667-19.103-42.667-42.667v-42.667h-42.667c-70.692 0-128-57.308-128-128v-512c0-70.694 57.308-128 128-128h512c70.694 0 128 57.306 128 128v512c0 70.692-57.306 128-128 128h-42.667v42.667c0 23.564-19.102 42.667-42.667 42.667s-42.667-19.103-42.667-42.667v-42.667h-256v42.667c0 23.564-19.103 42.667-42.667 42.667zM682.667 704h85.333c23.565 0 42.667-19.103 42.667-42.667v-42.667h-597.333v42.667c0 23.564 19.103 42.667 42.667 42.667h426.667zM213.333 149.333v384h597.333v-384c0-23.565-19.102-42.667-42.667-42.667h-512c-23.564 0-42.667 19.102-42.667 42.667zM298.667 405.333v-85.333c0-23.565 19.103-42.667 42.667-42.667h85.333c23.565 0 42.667 19.102 42.667 42.667v85.333c0 23.565-19.102 42.667-42.667 42.667h-85.333c-23.564 0-42.667-19.102-42.667-42.667z" />
<glyph unicode="&#xe904;" glyph-name="Camera" d="M450.628 832h122.743c58.739 0 109.935-39.974 124.181-96.955l18.428-73.711h94.686c70.694 0 128-57.308 128-128v-341.333c0-70.694-57.306-128-128-128h-597.333c-70.692 0-128 57.306-128 128v341.333c0 70.692 57.308 128 128 128h94.687l18.428 73.711c14.245 56.981 65.443 96.955 124.18 96.955zM628.019 661.333l-13.252 53.015c-4.749 18.993-21.815 32.318-41.395 32.318h-122.743c-19.58 0-36.646-13.325-41.395-32.318l-13.254-53.015h232.039zM286.687 576h-73.353c-23.564 0-42.667-19.103-42.667-42.667v-341.333c0-23.565 19.103-42.667 42.667-42.667h597.333c23.565 0 42.667 19.102 42.667 42.667v341.333c0 23.564-19.102 42.667-42.667 42.667h-523.98zM341.333 362.667c0-94.255 76.41-170.667 170.667-170.667 94.255 0 170.667 76.412 170.667 170.667s-76.412 170.667-170.667 170.667c-94.257 0-170.667-76.412-170.667-170.667zM512 277.333c-47.13 0-85.333 38.204-85.333 85.333s38.204 85.333 85.333 85.333c47.13 0 85.333-38.204 85.333-85.333s-38.204-85.333-85.333-85.333zM725.333 490.667c0 23.565 19.102 42.667 42.667 42.667s42.667-19.102 42.667-42.667c0-23.565-19.102-42.667-42.667-42.667s-42.667 19.102-42.667 42.667z" />
<glyph unicode="&#xe905;" glyph-name="CheckCircle" d="M85.333 448c0-235.639 191.025-426.667 426.667-426.667 235.639 0 426.667 191.027 426.667 426.667 0 235.642-191.027 426.667-426.667 426.667-235.642 0-426.667-191.025-426.667-426.667zM170.667 448c0 188.513 152.82 341.333 341.333 341.333s341.333-152.82 341.333-341.333c0-188.514-152.819-341.333-341.333-341.333s-341.333 152.819-341.333 341.333zM714.121 547.169c15.919 17.37 14.746 44.36-2.624 60.282s-44.361 14.749-60.284-2.621l-201.681-220.020-75.421 90.505c-15.085 18.103-41.99 20.548-60.092 5.461-18.103-15.083-20.549-41.988-5.463-60.092l106.667-128c7.881-9.455 19.461-15.049 31.77-15.339 12.305-0.29 24.141 4.749 32.461 13.824l234.667 255.999z" />
<glyph unicode="&#xe906;" glyph-name="Checkmark" d="M1004.717 813.788c25.286-24.695 25.766-65.215 1.075-90.503l-625.002-640.002c-12.594-12.896-30.042-19.878-48.056-19.245-18.013 0.64-34.923 8.845-46.572 22.598l-271 320.003c-22.843 26.973-19.495 67.357 7.479 90.2s67.357 19.495 90.2-7.478l225.53-266.308 575.844 589.663c24.691 25.288 65.216 25.769 90.502 1.073z" />
<glyph unicode="&#xe907;" glyph-name="ChevronDown" d="M924.783 690.254c18.513-18.329 18.513-48.045 0-66.374l-379.26-418.132c-18.513-18.33-48.533-18.33-67.046 0l-379.258 418.132c-18.514 18.329-18.514 48.045 0 66.374s48.53 18.328 67.044 0l345.737-384.948 345.737 384.948c18.513 18.328 48.529 18.328 67.046 0z" />
<glyph unicode="&#xe908;" glyph-name="ChevronLeft" d="M754.253 35.217c-18.33-18.513-48.043-18.513-66.372 0l-418.134 379.26c-18.328 18.513-18.328 48.533 0 67.046l418.134 379.258c18.33 18.514 48.043 18.514 66.372 0s18.33-48.53 0-67.044l-384.946-345.737 384.946-345.737c18.33-18.513 18.33-48.529 0-67.046z" />
<glyph unicode="&#xe909;" glyph-name="ChevronRight" d="M269.746 860.781c18.329 18.514 48.045 18.514 66.374 0l418.132-379.258c18.33-18.513 18.33-48.533 0-67.046l-418.132-379.26c-18.329-18.513-48.045-18.513-66.374 0-18.328 18.517-18.328 48.533 0 67.046l384.948 345.737-384.948 345.737c-18.328 18.514-18.328 48.531 0 67.044z" />
<glyph unicode="&#xe90a;" glyph-name="ChevronRightCircle" d="M85.333 448c0-235.639 191.025-426.667 426.667-426.667 235.639 0 426.667 191.027 426.667 426.667 0 235.642-191.027 426.667-426.667 426.667-235.642 0-426.667-191.025-426.667-426.667zM170.667 448c0 188.513 152.82 341.333 341.333 341.333s341.333-152.82 341.333-341.333c0-188.514-152.819-341.333-341.333-341.333s-341.333 152.819-341.333 341.333zM499.503 606.17c-16.661 16.662-43.678 16.662-60.339 0-16.663-16.663-16.663-43.677 0-60.34l97.83-97.83-97.83-97.83c-16.663-16.661-16.663-43.678 0-60.339 16.661-16.661 43.678-16.661 60.339 0l128 128c16.661 16.661 16.661 43.678 0 60.339l-128 128z" />
<glyph unicode="&#xe90b;" glyph-name="Close" d="M512 21.333c-235.642 0-426.667 191.027-426.667 426.667 0 235.642 191.025 426.667 426.667 426.667 235.639 0 426.667-191.025 426.667-426.667 0-235.639-191.027-426.667-426.667-426.667zM512 789.333c-188.513 0-341.333-152.82-341.333-341.333s152.82-341.333 341.333-341.333c188.514 0 341.333 152.819 341.333 341.333s-152.819 341.333-341.333 341.333zM670.17 606.17c16.661-16.663 16.661-43.677 0-60.34l-97.83-97.83 97.83-97.83c16.661-16.661 16.661-43.678 0-60.339s-43.678-16.661-60.339 0l-97.83 97.83-97.83-97.83c-16.663-16.661-43.677-16.661-60.34 0s-16.662 43.678 0 60.339l97.831 97.83-97.831 97.83c-16.662 16.663-16.662 43.677 0 60.34s43.677 16.662 60.34 0l97.83-97.831 97.83 97.831c16.661 16.662 43.678 16.662 60.339 0z" />
<glyph unicode="&#xe90c;" glyph-name="Crown" d="M122.311 603.64c-29.339-20.18-43.062-56.457-34.425-91.004l85.333-341.333c9.497-37.986 43.629-64.636 82.785-64.636h512c39.159 0 73.289 26.65 82.786 64.636l85.333 341.333c8.636 34.547-5.086 70.824-34.423 91.004-29.342 20.18-68.126 20.022-97.297-0.399l-125.146-87.601-88.021 220.052c-12.962 32.398-44.339 53.641-79.232 53.641s-66.27-21.244-79.228-53.641l-88.023-220.052-125.146 87.601c-29.172 20.421-67.957 20.579-97.296 0.399zM768.004 192h-512l-85.333 341.333 191.287-133.901c11.264-7.885 26.935-3.213 32.041 9.553l118.005 295.014 118.007-295.014c5.103-12.766 20.774-17.438 32.038-9.553l191.287 133.901-85.333-341.333z" />
<glyph unicode="&#xe90d;" glyph-name="Female" d="M382.524 540.891c-38.422 35.109-62.524 85.628-62.524 141.776 0 106.039 85.961 192 192 192s192-85.961 192-192c0-56.148-24.102-106.667-62.524-141.776 75.703-44.468 126.524-126.747 126.524-220.891v-85.333c0-23.565-19.102-42.667-42.667-42.667h-85.333v-90.347c0-49.216-43.371-80.32-85.333-80.32h-85.333c-41.963 0-85.333 31.104-85.333 80.32v90.347h-85.333c-23.564 0-42.667 19.102-42.667 42.667v85.333c0 94.144 50.82 176.422 126.524 220.891zM469.329 234.057c0.004-0.205 0.004-0.41 0.004-0.614v-126.775h85.333v128c0 23.565 19.102 42.667 42.667 42.667h85.333v42.667c0 94.255-76.412 170.667-170.667 170.667-94.257 0-170.667-76.412-170.667-170.667v-42.667h85.333c23.565 0 42.667-19.102 42.667-42.667 0-0.205 0-0.41-0.004-0.61zM512 576c58.91 0 106.667 47.756 106.667 106.667s-47.757 106.667-106.667 106.667c-58.91 0-106.667-47.756-106.667-106.667s47.757-106.667 106.667-106.667z" />
<glyph unicode="&#xe90e;" glyph-name="File" d="M85.333 533.333v-341.333c0-94.255 76.41-170.667 170.667-170.667h341.333c94.255 0 170.667 76.412 170.667 170.667 94.255 0 170.667 76.412 170.667 170.667v341.333c0 94.257-76.412 170.667-170.667 170.667h-341.333c-94.257 0-170.667-76.41-170.667-170.667-94.257 0-170.667-76.41-170.667-170.667zM341.333 704c0 47.128 38.205 85.333 85.333 85.333h341.333c47.13 0 85.333-38.205 85.333-85.333v-341.333c0-47.13-38.204-85.333-85.333-85.333v256c0 94.257-76.412 170.667-170.667 170.667h-256zM256 106.667c-47.128 0-85.333 38.204-85.333 85.333v341.333c0 47.128 38.205 85.333 85.333 85.333h341.333c47.13 0 85.333-38.205 85.333-85.333v-341.333c0-47.13-38.204-85.333-85.333-85.333h-341.333z" />
<glyph unicode="&#xe90f;" glyph-name="Flashlight" horiz-adv-x="981" d="M215.034-57.195c-16.928 10.91-23.921 32.171-16.775 50.999l121.713 320.721-188.428-15.71c-17.562-1.463-34.217 8.017-41.92 23.868s-4.869 34.807 7.134 47.71l535.784 576.009c13.538 14.553 35.328 17.832 52.548 7.906s25.306-30.426 19.499-49.433l-98.987-323.96 201.63 16.28c17.801 1.437 34.615-8.367 42.138-24.567 7.518-16.201 4.147-35.372-8.444-48.038l-572.515-576c-14.197-14.285-36.449-16.695-53.376-5.786zM698.999 502.844l-149.116-12.036c-14.084-1.139-27.823 4.774-36.681 15.782-8.858 11.012-11.686 25.698-7.556 39.212l63.194 206.825-334.499-359.612 145.992 12.173c14.602 1.216 28.807-5.146 37.623-16.849s11.010-27.11 5.812-40.811l-74.642-196.685 349.873 352z" />
<glyph unicode="&#xe910;" glyph-name="Hamburger" d="M128 704c0 23.564 19.103 42.667 42.667 42.667h682.667c23.565 0 42.667-19.103 42.667-42.667s-19.102-42.667-42.667-42.667h-682.667c-23.564 0-42.667 19.103-42.667 42.667zM128 448c0 23.565 19.103 42.667 42.667 42.667h682.667c23.565 0 42.667-19.102 42.667-42.667s-19.102-42.667-42.667-42.667h-682.667c-23.564 0-42.667 19.102-42.667 42.667zM170.667 234.667c-23.564 0-42.667-19.102-42.667-42.667s19.103-42.667 42.667-42.667h682.667c23.565 0 42.667 19.102 42.667 42.667s-19.102 42.667-42.667 42.667h-682.667z" />
<glyph unicode="&#xe911;" glyph-name="Hide" d="M865.83 862.17c16.661 16.662 43.678 16.662 60.339 0s16.661-43.677 0-60.34l-145.498-145.498c21.406-16.275 40.337-33.543 56.9-50.716 33.527-34.773 57.668-69.447 73.472-95.473 7.923-13.052 13.811-24.030 17.792-31.906 1.988-3.942 3.507-7.117 4.565-9.395 0.529-1.139 0.943-2.057 1.246-2.735l0.367-0.836 0.124-0.277 0.043-0.107 0.021-0.043c0.009-0.021 0.013-0.038-39.202-16.845 39.215-16.806 39.211-16.823 39.202-16.845l-0.021-0.043-0.043-0.107-0.124-0.277-0.367-0.836c-0.303-0.678-0.717-1.596-1.246-2.735-1.058-2.278-2.577-5.453-4.565-9.395-3.981-7.876-9.869-18.854-17.792-31.906-15.804-26.027-39.945-60.702-73.472-95.471-67.255-69.747-173.675-141.052-325.572-141.052-75.767 0-140.222 17.741-194.144 44.181l-159.686-159.684c-16.663-16.661-43.677-16.661-60.34 0s-16.662 43.678 0 60.339l768 768zM382.589 258.249c37.588-14.554 80.57-23.582 129.411-23.582 122.389 0 207.97 56.695 264.145 114.948 28.181 29.231 48.614 58.556 61.956 80.529 4.105 6.763 7.518 12.791 10.253 17.856-2.735 5.065-6.148 11.093-10.253 17.856-13.342 21.973-33.775 51.298-61.956 80.527-16.294 16.895-35.059 33.659-56.478 48.946l-60.629-60.632c15.014-25.407 23.629-55.047 23.629-86.697 0-94.255-76.412-170.667-170.667-170.667-31.65 0-61.291 8.614-86.697 23.629l-42.713-42.714zM489.899 365.555c7.049-1.882 14.455-2.889 22.101-2.889 47.13 0 85.333 38.204 85.333 85.333 0 7.646-1.007 15.053-2.889 22.101l-104.546-104.546zM896 448l39.215-16.806c4.604 10.731 4.604 22.882 0 33.613l-39.215-16.806zM512 746.667c38.323 0 73.749-4.538 106.381-12.445l-74.223-74.225c-10.428 0.879-21.141 1.338-32.158 1.338-122.39 0-207.968-56.694-264.144-114.95-28.183-29.229-48.616-58.554-61.957-80.527-4.108-6.763-7.518-12.791-10.255-17.856 2.737-5.065 6.147-11.093 10.255-17.856 12.238-20.156 30.443-46.502 55.124-73.28l-60.381-60.382c-30.539 32.7-52.807 64.87-67.685 89.374-7.923 13.052-13.813 24.030-17.792 31.906-1.991 3.942-3.508 7.117-4.566 9.395-0.529 1.139-0.944 2.057-1.246 2.735l-0.369 0.836-0.122 0.277-0.045 0.107-0.019 0.043c-0.008 0.021-0.016 0.038 39.192 16.841l-39.208-16.802c-4.599 10.731-4.599 22.882 0 33.613l39.208-16.802c-39.208 16.802-39.2 16.819-39.192 16.841l0.019 0.043 0.045 0.107 0.122 0.277 0.369 0.836c0.302 0.678 0.717 1.596 1.246 2.735 1.058 2.278 2.575 5.453 4.566 9.395 3.979 7.876 9.869 18.854 17.792 31.906 15.802 26.026 39.941 60.7 73.472 95.473 67.253 69.744 173.675 141.050 325.571 141.050zM341.589 457.429c4.724 86.749 74.232 156.258 160.981 160.981l-160.981-160.981z" />
<glyph unicode="&#xe912;" glyph-name="Home" horiz-adv-x="922" d="M384 38.569c0-56.648-45.846-102.569-102.4-102.569h-128c-84.831 0-153.6 68.879-153.6 153.851v432.791c0 43.107 18.055 84.236 49.769 113.376l308.554 283.506c57.018 52.39 144.040 54.12 203.090 4.038l305.843-259.4c34.468-29.233 54.344-72.177 54.344-117.413v-456.897c0-84.972-68.772-153.851-153.6-153.851h-128c-56.556 0-102.4 45.921-102.4 102.569v254.541h-153.6v-254.541zM495.24 845.286c-19.683 16.694-48.69 16.117-67.696-1.346l-308.554-283.506c-10.572-9.713-16.59-23.423-16.59-37.792v-432.791c0-28.324 22.923-51.282 51.2-51.282h128v305.823c0 28.324 22.923 51.287 51.2 51.287h256c28.278 0 51.2-22.963 51.2-51.287v-305.823h128c28.278 0 51.2 22.958 51.2 51.282v456.897c0 15.079-6.625 29.393-18.115 39.138l-305.845 259.4z" />
<glyph unicode="&#xe913;" glyph-name="Lock" d="M307.2 601.6v51.2c0 113.108 91.692 204.8 204.8 204.8s204.8-91.692 204.8-204.8v-51.2h-409.6zM204.8 583.933v68.867c0 169.662 137.538 307.2 307.2 307.2s307.2-137.538 307.2-307.2v-68.867c30.802-19.827 51.2-54.415 51.2-93.769v-195.765c0-197.939-160.461-358.4-358.4-358.4s-358.4 160.461-358.4 358.4v195.765c0 39.353 20.399 73.942 51.2 93.769zM265.035 499.2c-4.99 0-9.035-4.045-9.035-9.035v-195.765c0-141.384 114.615-256 256-256s256 114.616 256 256v195.765c0 4.99-4.045 9.035-9.037 9.035h-493.928zM512 396.8c56.554 0 102.4-45.844 102.4-102.4s-45.846-102.4-102.4-102.4c-56.554 0-102.4 45.844-102.4 102.4s45.846 102.4 102.4 102.4z" />
<glyph unicode="&#xe914;" glyph-name="Logout" d="M213.333 789.333v-682.667c0-47.13 38.205-85.333 85.333-85.333h426.667c47.13 0 85.333 38.204 85.333 85.333v682.667c0 47.128-38.204 85.333-85.333 85.333h-426.667c-47.128 0-85.333-38.205-85.333-85.333zM725.333 106.667h-261.466l81.745 35.034c31.377 13.449 51.721 44.297 51.721 78.434v416.439c0 30.622-16.41 58.897-42.995 74.090l-137.674 78.671h308.669v-682.667zM298.667 315.733v442.744l213.333-121.905v-416.439l-213.333-91.43v187.029zM426.667 490.667c23.565 0 42.667-19.102 42.667-42.667s-19.102-42.667-42.667-42.667c-23.564 0-42.667 19.102-42.667 42.667s19.103 42.667 42.667 42.667z" />
<glyph unicode="&#xe915;" glyph-name="Male" d="M512 490.667h-85.333c-23.564 0-42.667-19.102-42.667-42.667v-128h42.667c23.565 0 42.667-19.102 42.667-42.667v-166.4c0-2.185 0.708-3.588 1.22-4.267h82.893c0.512 0.678 1.22 2.082 1.22 4.267v165.794c0 23.561 19.102 42.667 42.667 42.667h42.667v128.606c0 23.565-19.102 42.667-42.667 42.667h-85.333zM384 192v42.667h-42.667c-23.564 0-42.667 19.102-42.667 42.667v170.667c0 48.090 26.522 89.988 65.736 111.862-27.725 33.286-44.403 76.098-44.403 122.804 0 106.039 85.961 192 192 192s192-85.961 192-192c0-46.707-16.678-89.519-44.403-122.804 39.215-21.874 65.737-63.773 65.737-111.862v-171.273c0-23.565-19.102-42.667-42.667-42.667h-42.667v-123.127c0-45.568-34.47-89.6-85.333-89.6h-85.333c-50.864 0-85.333 44.032-85.333 89.6v81.067zM512 576c58.91 0 106.667 47.756 106.667 106.667s-47.757 106.667-106.667 106.667c-58.91 0-106.667-47.756-106.667-106.667s47.757-106.667 106.667-106.667z" />
<glyph unicode="&#xe916;" glyph-name="MapMarker" d="M512 960c-141.385 0-256-114.615-256-256 0-123.851 87.949-227.16 204.8-250.879v-261.121c0-28.278 22.923-51.2 51.2-51.2s51.2 22.922 51.2 51.2v261.121c116.849 23.719 204.8 127.028 204.8 250.879 0 141.385-114.616 256-256 256zM665.6 704c0-84.831-68.767-153.6-153.6-153.6-84.831 0-153.6 68.769-153.6 153.6s68.769 153.6 153.6 153.6c84.833 0 153.6-68.769 153.6-153.6zM122.063 219.233c57.576 16.527 131.701 23.987 203.768 23.967 25.706-0.010 46.54-22.938 46.532-51.215s-20.852-51.195-46.559-51.185c-67.569 0.020-133.080-7.112-180.232-20.649-22.686-6.513-38.231-13.711-47.401-20.152 3.097-2.355 7.703-5.345 14.486-8.837 23.242-11.965 58.919-22.431 104.018-30.71 89.279-16.394 202.729-22.057 295.323-22.052 92.597 0.005 206.046 5.668 295.328 22.062 45.097 8.284 80.773 18.749 104.013 30.72 7.127 3.671 11.853 6.784 14.945 9.196-2.596 1.782-6.257 3.963-11.372 6.461-20.352 9.948-50.284 17.674-83.912 23.153-32.881 5.356-66.156 8.084-91.474 9.452-12.59 0.686-23.055 1.024-30.326 1.193-3.63 0.082-6.456 0.123-8.335 0.143l-2.099 0.020h-0.594c-25.697 0.005-46.536 22.922-46.536 51.195-0.005 28.278 20.874 51.2 46.577 51.205 0 0-0.036 0-0.031-51.2l0.031 51.2h0.271l3.287-0.026c2.207-0.020 5.381-0.072 9.39-0.164 8.003-0.184 19.354-0.553 32.947-1.29 27.044-1.464 63.585-4.419 100.526-10.435 36.188-5.893 76.073-15.222 108.083-30.874 28.273-13.819 71.281-43.249 71.281-99.41 0-55.485-42.092-86.543-73.185-102.559-34.76-17.9-80.317-30.193-128.159-38.984-96.609-17.741-215.885-23.455-310.656-23.46-94.766-0.005-214.043 5.709-310.651 23.45-47.845 8.786-93.401 21.074-128.156 38.968-31.089 16.010-73.193 47.053-73.193 102.538 0 39.608 22.936 66.611 44.35 82.652 21.603 16.179 49.261 27.453 77.713 35.625zM932.214 95.058c0 0-0.169 0.174-0.348 0.558 0.184-0.236 0.328-0.486 0.328-0.486l0.020-0.072zM931.63 105.605c0.102 0.246 0.189 0.358 0.189 0.358l-0.015-0.051c0 0-0.082-0.159-0.174-0.307zM92.177 105.938c0 0 0.087-0.113 0.19-0.358-0.151 0.236-0.19 0.358-0.19 0.358zM91.724 94.495c-0.146-0.256-0.263-0.384-0.263-0.384s0.059 0.128 0.263 0.384z" />
<glyph unicode="&#xe917;" glyph-name="Paperclip" d="M784.579 810.681c-62.039 62.281-161.178 62.281-223.218 0.001l-335.905-337.198c-99.084-99.467-99.084-263.143 0-362.61 95.985-96.353 249.357-96.353 345.342 0l317.092 318.316c19.738 19.809 51.374 19.444 70.666-0.814 19.297-20.26 18.939-52.741-0.794-72.55l-317.092-318.316c-134.826-135.347-350.261-135.347-485.086 0-139.179 139.715-139.179 369.623 0 509.34l335.904 337.198c100.885 101.271 262.083 101.271 362.962-0.001 104.141-104.541 104.141-276.571 0-381.112l-323.129-324.375c-60.152-60.385-156.267-60.385-216.418 0-62.094 62.331-62.094 164.905 0 227.236l273.159 274.213c19.732 19.809 51.374 19.444 70.666-0.815 19.297-20.259 18.939-52.741-0.794-72.55l-273.159-274.212c-21.999-22.083-21.999-58.424 0-80.507 21.31-21.391 55.363-21.391 76.674 0l323.128 324.376c64.046 64.292 64.046 170.089 0 234.381z" />
<glyph unicode="&#xe918;" glyph-name="Preferences" d="M1004.717 813.788c25.286-24.695 25.766-65.215 1.075-90.503l-625.002-640.002c-12.594-12.896-30.042-19.878-48.056-19.245-18.013 0.64-34.923 8.845-46.572 22.598l-271 320.003c-22.843 26.973-19.495 67.357 7.479 90.2s67.357 19.495 90.2-7.478l225.53-266.308 575.844 589.663c24.691 25.288 65.216 25.769 90.502 1.073z" />
<glyph unicode="&#xe919;" glyph-name="Profile" d="M512 21.333c-235.642 0-426.667 191.027-426.667 426.667 0 235.642 191.025 426.667 426.667 426.667 235.639 0 426.667-191.025 426.667-426.667 0-235.639-191.027-426.667-426.667-426.667zM512 789.333c-188.513 0-341.333-152.82-341.333-341.333 0-97.677 41.027-185.766 106.787-247.987 34.624 71.040 107.536 119.987 191.88 119.987h106.667c78.592 0 146.159-47.223 175.868-114.842 62.643 61.884 101.466 147.827 101.466 242.842 0 188.513-152.819 341.333-341.333 341.333zM680.201 150.916c-10.487 47.898-53.158 83.75-104.201 83.75h-106.667c-56.076 0-103.729-36.058-121.038-86.255 48.601-26.615 104.385-41.745 163.705-41.745 61.154 0 118.554 16.081 168.201 44.25zM512 362.667c-94.257 0-170.667 76.412-170.667 170.667 0 94.257 76.41 170.667 170.667 170.667 94.255 0 170.667-76.41 170.667-170.667 0-94.255-76.412-170.667-170.667-170.667zM512 618.667c-47.13 0-85.333-38.205-85.333-85.333 0-47.13 38.204-85.333 85.333-85.333s85.333 38.204 85.333 85.333c0 47.128-38.204 85.333-85.333 85.333z" />
<glyph unicode="&#xe91a;" glyph-name="Promotion" d="M809.382 821.294c27.123-15.041 43.951-43.613 43.951-74.627v-156.617c49.715-17.571 85.333-64.985 85.333-120.716s-35.618-103.147-85.333-120.717v-156.617c0-31.014-16.828-59.588-43.951-74.628s-60.271-14.178-86.575 2.244l-83.913 52.395c-65.54 40.922-137.387 69.931-212.228 86.080v-151.424c0-23.565-19.103-42.667-42.667-42.667h-128c-23.564 0-42.667 19.102-42.667 42.667v178.598c-74.74 27.729-128 99.678-128 184.068 0 108.395 87.872 196.267 196.267 196.267h4.636c124.696 0 246.888 35.014 352.659 101.057l83.913 52.393c26.304 16.425 59.452 17.285 86.575 2.244zM298.667 272.951v-123.618h42.667v121.451c-14.169 1.178-28.399 1.899-42.667 2.167zM768 746.667l-85.333-53.279c-118.997-73.933-256.313-113.121-396.431-113.121h-4.636c-61.267 0-110.933-49.668-110.933-110.933s49.667-110.933 110.933-110.933h4.636c140.118 0 277.433-39.189 396.431-113.122l85.333-53.278v554.667z" />
<glyph unicode="&#xe91b;" glyph-name="QR" d="M0 832c0 70.692 57.308 128 128 128h128c28.277 0 51.2-22.923 51.2-51.2s-22.923-51.2-51.2-51.2h-128c-14.138 0-25.6-11.462-25.6-25.6v-128c0-28.277-22.923-51.2-51.2-51.2s-51.2 22.923-51.2 51.2v128zM153.6 704c0 56.554 45.846 102.4 102.4 102.4h51.2c56.554 0 102.4-45.846 102.4-102.4v-51.2c0-56.554-45.846-102.4-102.4-102.4h-51.2c-56.554 0-102.4 45.846-102.4 102.4v51.2zM256 652.8h51.2v51.2h-51.2v-51.2zM614.4 243.2c0 56.556 45.844 102.4 102.4 102.4h51.2c56.556 0 102.4-45.844 102.4-102.4v-51.2c0-56.556-45.844-102.4-102.4-102.4h-51.2c-56.556 0-102.4 45.844-102.4 102.4v51.2zM716.8 192h51.2v51.2h-51.2v-51.2zM256 345.6c-56.554 0-102.4-45.844-102.4-102.4v-51.2c0-56.556 45.846-102.4 102.4-102.4h51.2c56.554 0 102.4 45.844 102.4 102.4v51.2c0 56.556-45.846 102.4-102.4 102.4h-51.2zM307.2 192h-51.2v51.2h51.2v-51.2zM512 601.6c28.278 0 51.2-22.923 51.2-51.2v-51.2c0-56.556-45.844-102.4-102.4-102.4h-256c-28.277 0-51.2 22.922-51.2 51.2s22.923 51.2 51.2 51.2h256v51.2c0 28.277 22.923 51.2 51.2 51.2zM665.6 806.4c-28.278 0-51.2-22.923-51.2-51.2s22.922-51.2 51.2-51.2h153.6c28.278 0 51.2 22.923 51.2 51.2s-22.922 51.2-51.2 51.2h-153.6zM614.4 448v153.6c0 28.277 22.922 51.2 51.2 51.2h153.6c28.278 0 51.2-22.923 51.2-51.2v-153.6c0-28.278-22.922-51.2-51.2-51.2s-51.2 22.922-51.2 51.2v102.4h-51.2v-102.4c0-28.278-22.922-51.2-51.2-51.2s-51.2 22.922-51.2 51.2zM460.8 294.4v-25.6c0-28.278 22.923-51.2 51.2-51.2s51.2 22.922 51.2 51.2v25.6c0 28.278-22.922 51.2-51.2 51.2s-51.2-22.922-51.2-51.2zM460.8 704v51.2c0 28.277 22.923 51.2 51.2 51.2s51.2-22.923 51.2-51.2v-51.2c0-28.277-22.922-51.2-51.2-51.2s-51.2 22.923-51.2 51.2zM460.8 140.8c0 28.278 22.923 51.2 51.2 51.2s51.2-22.922 51.2-51.2c0-28.278-22.922-51.2-51.2-51.2s-51.2 22.922-51.2 51.2zM896 960c70.692 0 128-57.308 128-128v-128c0-28.277-22.922-51.2-51.2-51.2s-51.2 22.923-51.2 51.2v128c0 14.138-11.464 25.6-25.6 25.6h-128c-28.278 0-51.2 22.923-51.2 51.2s22.922 51.2 51.2 51.2h128zM0 64c0-70.692 57.308-128 128-128h128c28.277 0 51.2 22.922 51.2 51.2s-22.923 51.2-51.2 51.2h-128c-14.138 0-25.6 11.464-25.6 25.6v128c0 28.278-22.923 51.2-51.2 51.2s-51.2-22.922-51.2-51.2v-128zM896-64c70.692 0 128 57.308 128 128v128c0 28.278-22.922 51.2-51.2 51.2s-51.2-22.922-51.2-51.2v-128c0-14.136-11.464-25.6-25.6-25.6h-128c-28.278 0-51.2-22.922-51.2-51.2s22.922-51.2 51.2-51.2h128z" />
<glyph unicode="&#xe91c;" glyph-name="Rewards" d="M512 960c-282.77 0-512-229.23-512-512 0-282.767 229.23-512 512-512 282.767 0 512 229.233 512 512 0 282.77-229.233 512-512 512zM102.4 448c0 226.216 183.384 409.6 409.6 409.6s409.6-183.384 409.6-409.6c0-226.217-183.383-409.6-409.6-409.6s-409.6 183.383-409.6 409.6zM463.28 688.178c15.327 47.171 82.061 47.172 97.385 0l38.876-119.648h125.809c49.597 0 70.221-63.468 30.095-92.622l-101.78-73.947 38.876-119.649c15.329-47.171-38.661-86.395-78.787-57.242l-101.781 73.948-101.779-73.948c-40.126-29.153-94.115 10.071-78.789 57.242l38.876 119.649-101.779 73.947c-40.126 29.153-19.504 92.622 30.094 92.622h125.806l38.876 119.648z" />
<glyph unicode="&#xe91d;" glyph-name="Settings" d="M405.335 874.667c-19.050 0-35.792-12.628-41.025-30.945l-32.444-113.554-112.497 16.071c-19.098 2.728-37.651-7.698-45.251-25.431l-64-149.333c-6.872-16.036-3.29-34.641 9.047-46.977l76.497-76.497-76.497-76.497c-13.605-13.606-16.421-34.633-6.875-51.337l85.333-149.333c8.861-15.509 26.442-23.855 44.059-20.919l90.426 15.070 32.202-112.704c5.233-18.317 21.975-30.946 41.025-30.946h213.332c19.051 0 35.793 12.629 41.028 30.946l32.201 112.704 90.423-15.070c17.617-2.935 35.2 5.41 44.062 20.919l85.333 149.333c9.545 16.704 6.729 37.73-6.878 51.337l-76.497 76.497 76.497 76.497c12.339 12.336 15.919 30.941 9.050 46.977l-64 149.333c-7.599 17.732-26.155 28.159-45.252 25.431l-112.495-16.071-32.444 113.554c-5.235 18.317-21.978 30.945-41.028 30.945h-213.332zM403.693 670.945l33.824 118.388h148.966l33.826-118.388c5.858-20.502 25.95-33.532 47.061-30.516l116.962 16.709 39.74-92.727-86.242-86.241c-16.661-16.661-16.661-43.678 0-60.339l83.622-83.622-54.417-95.236-98.688 16.448c-21.402 3.567-42.078-9.502-48.038-30.366l-33.826-118.387h-148.966l-33.824 118.387c-5.961 20.864-26.634 33.933-48.039 30.366l-98.685-16.448-54.42 95.236 83.623 83.622c16.662 16.661 16.662 43.678 0 60.339l-86.241 86.241 39.74 92.727 116.963-16.709c21.108-3.015 41.201 10.015 47.059 30.516zM512 362.667c-47.125 0-85.333 38.204-85.333 85.333s38.208 85.333 85.333 85.333c47.13 0 85.333-38.204 85.333-85.333s-38.204-85.333-85.333-85.333zM341.335 448c0 94.257 76.41 170.667 170.665 170.667 94.259 0 170.667-76.41 170.667-170.667 0-94.255-76.407-170.667-170.667-170.667-94.255 0-170.665 76.412-170.665 170.667z" />
<glyph unicode="&#xe91e;" glyph-name="Show" d="M185.9 465.856c13.341 21.973 33.773 51.298 61.957 80.527 56.175 58.256 141.754 114.95 264.144 114.95s207.97-56.694 264.145-114.95c28.181-29.229 48.614-58.554 61.956-80.527 4.105-6.763 7.518-12.791 10.253-17.856-2.735-5.065-6.148-11.093-10.253-17.856-13.342-21.973-33.775-51.298-61.956-80.529-56.175-58.253-141.756-114.948-264.145-114.948s-207.968 56.695-264.144 114.948c-28.183 29.231-48.616 58.556-61.957 80.529-4.108 6.763-7.518 12.791-10.255 17.856 2.737 5.065 6.147 11.093 10.255 17.856zM935.202 431.155c0.009 0.021 0.013 0.038-39.202 16.845l39.215-16.806c4.604 10.731 4.604 22.882 0 33.613l-39.215-16.806c39.215 16.806 39.211 16.823 39.202 16.845l-0.021 0.043-0.043 0.107-0.124 0.277-0.367 0.836c-0.303 0.678-0.717 1.596-1.246 2.735-1.058 2.278-2.577 5.453-4.565 9.395-3.981 7.876-9.869 18.854-17.792 31.906-15.804 26.026-39.945 60.7-73.472 95.473-67.255 69.744-173.675 141.050-325.572 141.050s-258.317-71.306-325.571-141.050c-33.531-34.773-57.67-69.447-73.472-95.473-7.923-13.052-13.813-24.030-17.792-31.906-1.991-3.942-3.508-7.117-4.566-9.395-0.529-1.139-0.944-2.057-1.246-2.735l-0.369-0.836-0.122-0.277-0.045-0.107-0.019-0.043c-0.008-0.021-0.016-0.038 39.2-16.845l-39.216 16.806c-4.599-10.731-4.599-22.882 0-33.613l39.216 16.806c-39.216-16.806-39.208-16.823-39.2-16.845l0.019-0.043 0.045-0.107 0.122-0.277 0.369-0.836c0.302-0.678 0.717-1.596 1.246-2.735 1.058-2.278 2.575-5.453 4.566-9.395 3.979-7.876 9.869-18.854 17.792-31.906 15.802-26.027 39.941-60.702 73.472-95.471 67.253-69.747 173.675-141.052 325.571-141.052 151.898 0 258.317 71.305 325.572 141.052 33.527 34.769 57.668 69.444 73.472 95.471 7.923 13.052 13.811 24.030 17.792 31.906 1.988 3.942 3.507 7.117 4.565 9.395 0.529 1.139 0.943 2.057 1.246 2.735l0.367 0.836 0.124 0.277 0.043 0.107 0.021 0.043zM512 362.667c47.13 0 85.333 38.204 85.333 85.333s-38.204 85.333-85.333 85.333c-47.13 0-85.333-38.204-85.333-85.333s38.204-85.333 85.333-85.333zM341.333 448c0 94.257 76.41 170.667 170.667 170.667 94.255 0 170.667-76.41 170.667-170.667 0-94.255-76.412-170.667-170.667-170.667-94.257 0-170.667 76.412-170.667 170.667z" />
<glyph unicode="&#xe91f;" glyph-name="Sort" d="M268.497 606.17c-16.662-16.663-16.662-43.677 0-60.34 16.663-16.661 43.677-16.661 60.34 0l183.163 183.164 183.164-183.164c16.661-16.661 43.678-16.661 60.339 0 16.661 16.663 16.661 43.677 0 60.34l-213.333 213.333c-8 8.001-18.854 12.497-30.17 12.497s-22.17-4.495-30.17-12.497l-213.334-213.333zM755.503 289.83c16.661 16.661 16.661 43.678 0 60.339s-43.678 16.661-60.339 0l-183.164-183.164-183.163 183.164c-16.663 16.661-43.677 16.661-60.34 0s-16.662-43.678 0-60.339l213.334-213.333c16.661-16.661 43.678-16.661 60.339 0l213.333 213.333z" />
<glyph unicode="&#xe920;" glyph-name="Stopwatch" d="M426.657 784.167h47.843v-80.157c0-0.681 0.017-1.358 0.047-2.031-170.892-18.65-303.881-163.446-303.881-339.303 0-188.514 152.82-341.333 341.333-341.333 172.275 0 314.743 127.629 338.005 293.491h45.995c23.565 0 42.667 19.102 42.667 42.667s-19.102 42.667-42.667 42.667h-44.702c-7.027 64.337-31.936 123.302-69.649 171.817l16.521 16.523c16.661 16.662 16.661 43.677 0 60.34s-43.678 16.663-60.339 0l-16.525-16.523c-45.935 35.709-101.235 59.937-161.6 68.379 0.085 1.091 0.128 2.194 0.128 3.308v80.157h47.842c23.565 0 42.667 19.102 42.667 42.667s-19.102 42.667-42.667 42.667h-181.019c-23.564 0-42.667-19.103-42.667-42.667s19.103-42.667 42.667-42.667zM768 362.675c0-141.385-114.615-256-256-256s-256 114.615-256 256c0 141.385 114.615 256.001 256 256.001s256-114.617 256-256.001zM396.497 478.178c-16.662-16.661-16.662-43.678 0-60.339l85.334-85.333c16.661-16.661 43.678-16.661 60.339 0s16.661 43.678 0 60.339l-85.333 85.333c-16.661 16.666-43.677 16.666-60.34 0z" />
<glyph unicode="&#xe921;" glyph-name="Tag" d="M2.329 597.864l35.231 206.771c12.191 71.552 69.931 125.963 140.992 132.862l224.263 21.773c47.035 4.566 93.617-12.47 127.028-46.458l447.775-455.524c61.844-62.915 61.844-164.921 0-227.835l-242.079-246.267c-61.844-62.915-162.115-62.915-223.96 0l-465.194 473.245c-36.42 37.051-52.854 89.805-44.057 141.433zM188.582 830.58c-23.687-2.299-42.933-20.436-46.997-44.287l-35.231-206.772c-2.932-17.209 2.545-34.794 14.686-47.144l465.195-473.246c20.613-20.972 54.036-20.972 74.655 0l242.074 246.267c20.613 20.972 20.613 54.973 0 75.945l-447.776 455.524c-11.137 11.329-26.664 17.008-42.342 15.486l-224.264-21.773zM346.423 705.857c21.865-22.244 21.865-58.309 0-80.552s-57.317-22.244-79.182 0c-21.865 22.244-21.865 58.309 0 80.552s57.316 22.244 79.182 0z" />
<glyph unicode="&#xe922;" glyph-name="Token-adress" d="M768 149.333c70.694 0 128 57.306 128 128v469.333c0 70.692-57.306 128-128 128h-384c-70.692 0-128-57.308-128-128-70.692 0-128-57.308-128-128v-469.333c0-70.694 57.308-128 128-128h341.333c70.694 0 128 57.306 128 128h42.667zM682.667 234.667h-298.667c-23.564 0-42.667 19.102-42.667 42.667v469.333c0 23.564 19.103 42.667 42.667 42.667h384c23.565 0 42.667-19.102 42.667-42.667v-469.333c0-23.565-19.102-42.667-42.667-42.667h-85.333zM213.333 618.667c0 23.564 19.103 42.667 42.667 42.667v-384c0-70.694 57.308-128 128-128h256c0-23.565-19.102-42.667-42.667-42.667h-341.333c-23.564 0-42.667 19.102-42.667 42.667v469.333zM469.333 704h213.333c23.565 0 42.667-19.103 42.667-42.667s-19.102-42.667-42.667-42.667h-213.333c-23.565 0-42.667 19.102-42.667 42.667s19.102 42.667 42.667 42.667zM426.667 512c0-23.565 19.102-42.667 42.667-42.667h213.333c23.565 0 42.667 19.102 42.667 42.667s-19.102 42.667-42.667 42.667h-213.333c-23.565 0-42.667-19.103-42.667-42.667zM469.333 405.333h213.333c23.565 0 42.667-19.102 42.667-42.667s-19.102-42.667-42.667-42.667h-213.333c-23.565 0-42.667 19.102-42.667 42.667s19.102 42.667 42.667 42.667z" />
<glyph unicode="&#xe923;" glyph-name="TransactionHistory" d="M170.667 769.896v-630.888l53.087 53.218c35.099 35.183 93.366 33.19 125.892-4.301l53.953-62.195 47.819 61.205c29.282 37.478 84.284 43.793 121.574 13.965l67.008-53.606v580.669c0 22.5 5.154 43.817 14.37 62.873h-462.37c-11.798 0-21.333-9.381-21.333-20.94zM768 874.667v-1.486c6.967 0.979 14.089 1.486 21.333 1.486 82.475 0 149.333-65.682 149.333-146.704v-268.716c0-25.212-20.804-45.653-46.468-45.653h-166.865v-346.432c0-38.537-45.542-59.806-75.964-35.469v0l-130.261 104.201-63.872-81.754c-24.798-31.74-73.064-32.951-99.481-2.5l-71.057 81.907-89.657-89.873c-40.127-40.222-109.709-12.314-109.709 44.011v682.211c0 57.888 47.772 104.771 106.667 104.771h576zM853.333 727.962c0 34.724-28.655 62.873-64 62.873s-64-28.149-64-62.873v-230.537h128v230.537zM298.667 539.343h213.333c23.565 0 42.667-18.767 42.667-41.917 0-23.147-19.102-41.916-42.667-41.916h-213.333c-23.564 0-42.667 18.769-42.667 41.916 0 23.151 19.103 41.917 42.667 41.917zM256 329.766c0-23.151 19.103-41.916 42.667-41.916h213.333c23.565 0 42.667 18.765 42.667 41.916 0 23.147-19.102 41.916-42.667 41.916h-213.333c-23.564 0-42.667-18.769-42.667-41.916zM298.667 707.005h213.333c23.565 0 42.667-18.767 42.667-41.916s-19.102-41.915-42.667-41.915h-213.333c-23.564 0-42.667 18.766-42.667 41.915s19.103 41.916 42.667 41.916z" />
<glyph unicode="&#xe924;" glyph-name="Trashcan" d="M693.747 746.667h159.586c23.565 0 42.667-19.102 42.667-42.667s-19.102-42.667-42.667-42.667h-42.667v-512c0-70.694-57.306-128-128-128h-341.333c-70.692 0-128 57.306-128 128v512h-42.667c-23.564 0-42.667 19.102-42.667 42.667s19.103 42.667 42.667 42.667h170.667c0 70.692 57.307 128 128 128h85.333c70.694 0 128-57.308 128-128h11.081zM725.333 661.333h-426.667v-512c0-23.565 19.103-42.667 42.667-42.667h341.333c23.565 0 42.667 19.102 42.667 42.667v512zM426.667 746.667h170.667c0 23.564-19.102 42.667-42.667 42.667h-85.333c-23.565 0-42.667-19.103-42.667-42.667zM426.667 576c-23.564 0-42.667-19.103-42.667-42.667v-298.667c0-23.565 19.103-42.667 42.667-42.667s42.667 19.102 42.667 42.667v298.667c0 23.564-19.102 42.667-42.667 42.667zM640 533.333v-298.667c0-23.565-19.102-42.667-42.667-42.667s-42.667 19.102-42.667 42.667v298.667c0 23.564 19.102 42.667 42.667 42.667s42.667-19.103 42.667-42.667z" />
<glyph unicode="&#xe925;" glyph-name="Wallet" d="M896 552.204v-51.57c25.506-14.067 42.667-40.363 42.667-70.481v-81.365c0-30.118-17.161-56.414-42.667-70.485v-92.25c0-67.409-57.306-122.052-128-122.052h-554.667c-70.692 0-128 54.643-128 122.052v366.151c0 51.261 33.141 95.14 80.108 113.22 3.253 2.465 6.943 4.515 11.015 6.035l407.685 152.111c67.857 25.318 144.158-8.407 167.748-74.143l27.136-75.619c65.532-5.332 116.975-57.74 116.975-121.604zM810.667 511.518v40.686c0 22.469-19.102 40.684-42.667 40.684h-554.667c-23.564 0-42.667-18.215-42.667-40.684v-366.151c0-22.468 19.103-40.687 42.667-40.687h554.667c23.565 0 42.667 18.219 42.667 40.687v81.365h-42.667c-70.694 0-128 54.643-128 122.052 0 67.405 57.306 122.048 128 122.048h42.667zM671.151 723.082c-7.863 21.912-33.297 33.154-55.915 24.715l-197.107-73.543h270.545l-17.523 48.828zM725.333 389.47c0-22.468 19.102-40.683 42.667-40.683h85.333v81.365h-85.333c-23.565 0-42.667-18.214-42.667-40.683z" />
<glyph unicode="&#xe926;" glyph-name="Pencil" d="M696.827 929.855l-628.2-628.2c-14.306-14.305-24.079-32.512-28.096-52.342l-38.48-189.957c-6.85-33.812 3.699-68.813 28.096-93.21s59.395-34.944 93.21-28.099l189.956 38.482c19.83 4.019 38.036 13.788 52.343 28.099l628.197 628.197c40.197 40.193 40.197 105.359 0 145.553l-151.475 151.476c-40.192 40.193-105.359 40.193-145.551 0zM125.106 148.429l6.618 32.671 113.375-113.377-142.176-28.8 22.183 109.507zM336.926 121.452l-151.476 151.475 441.831 441.831 151.475-151.476-441.831-441.83zM851.533 636.058l-151.475 151.476 69.545 69.544 151.475-151.476-69.545-69.544z" />
<glyph unicode="&#xe927;" glyph-name="Nft" horiz-adv-x="1170" d="M259.135 960h652.013c18.044 0 35.072-9.1 46.16-24.662l200.616-281.6c17.715-24.859 16.245-60.119-3.467-83.11l-526.626-614.396c-11.062-12.91-26.514-20.231-42.688-20.231s-31.626 7.322-42.688 20.231l-526.628 614.396c-19.707 22.991-21.178 58.251-3.468 83.11l200.62 281.6c11.087 15.563 28.118 24.662 46.156 24.662zM196.53 704h777.228l-91.195 128h-594.843l-91.191-128zM171.636 576l413.507-482.428 413.506 482.428h-827.012z" />
<glyph unicode="&#xe928;" glyph-name="Search" d="M1024 576c0-212.076-171.924-384-384-384-88.658 0-170.302 30.049-235.299 80.512-2.448-5.176-5.814-10.030-10.097-14.316l-307.2-307.2c-19.995-19.994-52.413-19.994-72.408 0s-19.995 52.413 0 72.407l307.2 307.2c4.284 4.285 9.138 7.649 14.317 10.097-50.466 64.998-80.513 146.64-80.513 235.3 0 212.078 171.922 384 384 384 212.076 0 384-171.922 384-384zM921.6 576c0 155.524-126.075 281.6-281.6 281.6s-281.6-126.076-281.6-281.6c0-155.525 126.076-281.6 281.6-281.6s281.6 126.075 281.6 281.6z" />
<glyph unicode="&#xe929;" glyph-name="Company" horiz-adv-x="922" d="M512 908.799c0 16.793-8.234 32.518-22.037 42.083s-31.417 11.754-47.14 5.857l-409.6-153.6c-19.984-7.494-33.223-26.597-33.223-47.94v-767.999c0-28.278 22.923-51.2 51.2-51.2s51.2 22.922 51.2 51.2v732.518l307.2 115.2v-847.718c0-28.278 22.923-51.2 51.2-51.2s51.2 22.922 51.2 51.2v395.223l307.2-76.8v-318.423c0-28.278 22.922-51.2 51.2-51.2s51.2 22.922 51.2 51.2v358.4c0 23.496-15.99 43.971-38.784 49.669l-370.816 92.706v420.824zM230.4 703.999c-28.277 0-51.2-22.923-51.2-51.2v-51.2c0-28.277 22.923-51.2 51.2-51.2h51.2c28.277 0 51.2 22.923 51.2 51.2v51.2c0 28.277-22.923 51.2-51.2 51.2h-51.2zM179.2 396.8c0 28.278 22.923 51.2 51.2 51.2h51.2c28.277 0 51.2-22.922 51.2-51.2v-51.2c0-28.278-22.923-51.2-51.2-51.2h-51.2c-28.277 0-51.2 22.922-51.2 51.2v51.2zM230.4 192c-28.277 0-51.2-22.922-51.2-51.2v-51.2c0-28.278 22.923-51.2 51.2-51.2h51.2c28.277 0 51.2 22.922 51.2 51.2v51.2c0 28.278-22.923 51.2-51.2 51.2h-51.2zM640 243.2c-28.278 0-51.2-22.922-51.2-51.2v-51.2c0-28.278 22.922-51.2 51.2-51.2h51.2c28.278 0 51.2 22.922 51.2 51.2v51.2c0 28.278-22.922 51.2-51.2 51.2h-51.2z" />
<glyph unicode="&#xe92a;" glyph-name="Keys" horiz-adv-x="819" d="M306.707 803.584v-79.017c34.065 19.423 68.645 29.006 102.136 31.033v47.984c0 28.795-22.864 52.139-51.068 52.139s-51.068-23.344-51.068-52.139zM204.571 596.080c-57.010-19.586-102.435-72.151-102.435-147.932 0-69.55 39.796-113.182 65.877-130.99 19.455-13.286 36.259-37.197 36.259-67.61v-134.431l41.582-65.582 60.554 37.094v162.918c0 29.793 16.092 53.873 35.662 67.533 21.105 14.73 66.473 54.953 66.473 131.066 0 29.27-9.976 69.805-34.094 101.816-15.237 20.223-36.762 38.061-67.743 47.493v-80.635c0-28.795-22.864-52.138-51.068-52.138s-51.068 23.343-51.068 52.138v79.259zM204.571 703.623v99.961c0 86.386 68.592 156.416 153.204 156.416s153.204-70.030 153.204-156.416v-64.715c44.848-17.585 81.774-46.273 106.104-74.576 74.624-86.804 68.803-180.719 59.356-227.121l101.115-117.617 1.275-1.766 25.385-35.092c14.628-20.219 18.847-46.387 11.336-70.323l-34.632-110.367c-11.694-37.268-48.568-59.976-86.313-53.146l-131.517 23.788c-19.133 3.461-36.265 14.213-47.918 30.085l-101.788 138.557c-1.658-1.341-3.273-2.611-4.838-3.814v-165.606c0-27.474-14.117-52.931-37.191-67.062l-94.112-57.651c-35.406-21.688-81.277-10.829-103.715 24.561l-59.092 93.199c-8.027 12.657-12.298 27.418-12.298 42.496v129.644c-44.758 34.156-102.136 104.545-102.136 211.092 0 141.331 96.808 233.278 204.571 255.475zM442.851 650.149c-7.489 1.169-15.25 1.752-23.246 1.566 13.508-11.544 25.428-24.406 35.801-38.173 39.717-52.714 55.275-116.457 55.275-165.394 0-50.78-12.574-92.119-29.817-124.922l109.965-149.693 99.63-18.022 23.834 75.965-16.343 22.595-106.076 123.392c-19.246 22.385-22.707 51.323-16.824 74.769 6.339 25.285 14.454 86.070-34.729 143.274-17.633 20.514-48.117 42.547-83.621 51.765-4.828 0.306-9.475 1.297-13.847 2.879z" />
</font>
</defs>
</svg>
